<?xml version="1.0" encoding="UTF-8"?>
<svg id="Livello_2" data-name="Livello 2" xmlns="http://www.w3.org/2000/svg" xmlns:xlink="http://www.w3.org/1999/xlink" viewBox="0 0 918.29 455.38">
  <defs>
    <style>
      .cls-1 {
        fill: #042c44;
        font-family: Coolvetica-Regular, Coolvetica;
        font-size: 300px;
      }

      .cls-2 {
        letter-spacing: 0em;
      }

      .cls-3 {
        fill: #ffbb04;
      }

      .cls-4 {
        filter: url(#drop-shadow-1);
      }

      .cls-5 {
        letter-spacing: -.04em;
      }
    </style>
    <filter id="drop-shadow-1" x="-8.86" y="-8.31" width="950" height="486" filterUnits="userSpaceOnUse">
      <feOffset dx="7" dy="7"/>
      <feGaussianBlur result="blur" stdDeviation="5"/>
      <feFlood flood-color="#000" flood-opacity=".25"/>
      <feComposite in2="blur" operator="in"/>
      <feComposite in="SourceGraphic"/>
    </filter>
  </defs>
  <g id="Layer_1" data-name="Layer 1">
    <g class="cls-4">
      <text class="cls-1" transform="translate(0 385.48)"><tspan class="cls-5" x="0" y="0">T</tspan><tspan class="cls-2" x="153.3" y="0">utorly</tspan></text>
      <g>
        <path class="cls-3" d="M465.17,8.65c1.66-3.34,3.83-6.47,6.94-8.65,10.26,14.28,15.56,31.5,24.75,46.43,16.97,7.01,36.83,2.13,53.42,10.35-2.48,4.25-6.26,7.45-10.24,10.24-9.44,6.64-17.22,15.24-25.14,23.55-3.74,2.94-2.01,7.9-1.43,11.82,3.25,14.68,5.82,29.54,7.17,44.54-14.77-4.02-27.69-12.53-40.87-19.93-5.91-3.29-13.13-1.59-18.83,1.33-12.83,6.68-24.54,15.75-38.53,20,1.75-17.34,5.66-34.4,8.74-51.53-4.44-7.38-11.52-12.62-17.18-19-6.57-7.41-14.3-13.67-20.77-21.12l-.05-1.68c17.2-3.74,35.17-3.36,52.09-8.55,2.87-.65,3.74-3.83,4.98-6.1,4.53-10.77,9.67-21.29,14.96-31.71Z"/>
        <path class="cls-3" d="M618.32,93.71c7.64-9.65,12.88-21.12,21.83-29.72,5.63,13.04,8.25,27.15,13.93,40.15,12.17,4.6,25.45,5.91,37.27,11.64-1.31,4.37-5.4,6.87-8.72,9.6-7.38,5.89-15.77,10.52-22.6,17.08-1.45,13.6.82,27.34-.56,40.96-12.57-5.54-21.24-17.11-33.65-22.92-14.02,2.22-26.57,9.63-40.15,13.48.61-14.49,9.7-27.01,10.75-41.38-6.26-12.41-17.99-21.12-24-33.67,13.06-1.05,26.2.65,39.23-.63,2.94-.07,4.91-2.55,6.66-4.58Z"/>
        <path class="cls-3" d="M290.24,104.22c5.3-12.67,5.98-27.06,13.37-38.88,10.84,8.74,15.31,22.78,25.12,32.46,13.62,3.41,28.53-2.57,41.64,3.18-7.83,10.4-17.43,19.75-23.6,31.27,1.66,14.39,9.39,27.29,11.59,41.64-13.48-4.04-26.36-10.19-40.15-13.13-7.62,3.55-14.23,8.9-20.89,13.95-4.63,3.39-8.69,8.11-14.6,9.18-1.15-14-.68-28.04,1.07-41.97-11.33-8.34-22.9-16.36-34.23-24.75,12.57-7.03,27.2-8.46,40.68-12.95Z"/>
      </g>
    </g>
  </g>
</svg>