<?xml version="1.0" encoding="UTF-8"?>
<svg id="Livello_2" data-name="Livello 2" xmlns="http://www.w3.org/2000/svg" viewBox="0 0 390.77 489.81">
  <defs>
    <style>
      .cls-1 {
        fill: #de9379;
      }

      .cls-2 {
        fill: #ffbb04;
      }

      .cls-3 {
        fill: #084467;
      }

      .cls-4 {
        fill: #ff9204;
      }

      .cls-5 {
        fill: #042c44;
      }

      .cls-6 {
        fill: #f1b9a7;
      }

      .cls-7 {
        fill: #faabaa;
      }

      .cls-8 {
        fill: #fffffe;
      }

      .cls-9 {
        fill: #f3cfbf;
      }
    </style>
  </defs>
  <g id="Layer_1" data-name="Layer 1">
    <g>
      <g>
        <path class="cls-6" d="M62.86,293.8c4.21-2.31,9.1-2.87,13.75-3.75,2.2,4.47,3.58,9.54,7.37,13.01.07,2.81.12,5.63.31,8.44-3.33-4.46-9.98-4.31-14.4-1.66-7.02,3.98-10.66,12.56-9.63,20.41.3,2.76,2.84,5.94,5.75,3.88,1.3-4.1.23-8.57,1.61-12.65,1.24-3.08,3.82-5.62,6.88-6.89,3.24-1.07,6.71-.47,10.04-.32.87,6.12.32,12.35,1.28,18.47,1.11,7.23,2.69,14.39,4.76,21.41.97,3.33,2.57,6.43,4.47,9.33-5.45,1.26-10.81,3.85-16.54,3-7.05-.97-13.81-4.21-18.88-9.21-8.61-7.64-13.85-19.24-13.09-30.8.07-2.93-.11-5.87.17-8.79,1.22-9.94,7.66-18.77,16.15-23.88Z"/>
        <path class="cls-6" d="M313.89,301.89c2.83-3.5,4.92-7.52,6.52-11.7,5.5.35,10.9,2.02,15.78,4.57,8.21,4.82,13.44,13.7,15.03,22.95.32,3.9.11,7.83.15,11.75.03,3.96-1.32,7.74-2.57,11.45-2.66,8.31-8.53,15.34-15.62,20.32-4.3,3.13-9.58,4.59-14.8,5.25-5.42.63-10.61-1.51-15.67-3.13,2.01-2.79,3.69-5.84,4.67-9.15,2.22-7.25,3.96-14.67,4.9-22.2.85-6.25.06-12.61,1.08-18.85,3.54.53,7.16.83,10.57,1.98,3.43,1.13,5.98,4.33,6.74,7.82.63,3.72.23,7.56,1.11,11.25,1.3.46,2.99,1.03,4.07-.23,3.13-4.95,2.19-11.4-.44-16.36-2.68-5.62-8.59-9.91-14.96-9.61-2.72-.01-4.88,1.81-6.89,3.4.23-3.17.28-6.34.33-9.51Z"/>
      </g>
      <g>
        <path class="cls-2" d="M197.49,3.7c.71-1.43,1.64-2.77,2.97-3.7,4.39,6.11,6.66,13.48,10.59,19.87,7.26,3,15.76.91,22.86,4.43-1.06,1.82-2.68,3.19-4.38,4.38-4.04,2.84-7.37,6.52-10.76,10.08-1.6,1.26-.86,3.38-.61,5.06,1.39,6.28,2.49,12.64,3.07,19.06-6.32-1.72-11.85-5.36-17.49-8.53-2.53-1.41-5.62-.68-8.06.57-5.49,2.86-10.5,6.74-16.49,8.56.75-7.42,2.42-14.72,3.74-22.05-1.9-3.16-4.93-5.4-7.35-8.13-2.81-3.17-6.12-5.85-8.89-9.04l-.02-.72c7.36-1.6,15.05-1.44,22.29-3.66,1.23-.28,1.6-1.64,2.13-2.61,1.94-4.61,4.14-9.11,6.4-13.57Z"/>
        <path class="cls-2" d="M263.03,40.1c3.27-4.13,5.51-9.04,9.34-12.72,2.41,5.58,3.53,11.62,5.96,17.18,5.21,1.97,10.89,2.53,15.95,4.98-.56,1.87-2.31,2.94-3.73,4.11-3.16,2.52-6.75,4.5-9.67,7.31-.62,5.82.35,11.7-.24,17.53-5.38-2.37-9.09-7.32-14.4-9.81-6,.95-11.37,4.12-17.18,5.77.26-6.2,4.15-11.56,4.6-17.71-2.68-5.31-7.7-9.04-10.27-14.41,5.59-.45,11.21.28,16.79-.27,1.26-.03,2.1-1.09,2.85-1.96Z"/>
        <path class="cls-2" d="M122.63,44.6c2.27-5.42,2.56-11.58,5.72-16.64,4.64,3.74,6.55,9.75,10.75,13.89,5.83,1.46,12.21-1.1,17.82,1.36-3.35,4.45-7.46,8.45-10.1,13.38.71,6.16,4.02,11.68,4.96,17.82-5.77-1.73-11.28-4.36-17.18-5.62-3.26,1.52-6.09,3.81-8.94,5.97-1.98,1.45-3.72,3.47-6.25,3.93-.49-5.99-.29-12,.46-17.96-4.85-3.57-9.8-7-14.65-10.59,5.38-3.01,11.64-3.62,17.41-5.54Z"/>
        <path class="cls-2" d="M194.38,358.4c2.06-2.52,6.21-2.45,8.65-.53,1.94,1.89,2.94,4.49,4.04,6.92,3.54,8.73,7.43,17.31,10.97,26.03,1.33,2.81,2.46,6.15,5.32,7.77,3.02,1.56,6.44.2,9.41-.79,6.55-2.56,13.25-4.69,19.82-7.18,2.25-.78,4.52-1.67,6.92-1.82,2.08.06,4,1,5.94,1.65.61,2.36,1.72,4.95.84,7.38-3.06,6.47-6.03,13-8.84,19.59-1.15,2.99-2.43,7.19.43,9.64,4.73,3.61,11.14,3.63,16.1,6.8,2.57,1.66,2.89,5.29,1.9,7.95-1.08,2.54-3.78,3.75-6.05,5.02-5.1,2.51-10.18,5.1-15.37,7.41-7.31,2.53-13.92,6.67-21.23,9.17.12-2.79-.15-5.65.65-8.35.67-2.32,3.06-3.28,5.01-4.29,2.78-1.43,5.92-2.5,8.07-4.89.32-1.41.17-2.99-.68-4.18-3.04-2.35-7.17-2.8-10.06-5.41-.69-6.48,2.86-12.26,4.43-18.33.6-1.76-.11-3.96-1.8-4.81-2.76-.37-5.57-.2-8.32-.67l-.63-.39c-5.76-4.98-14.16-.05-20.34-3.72-3.54-4.75-4.24-11.3-8.74-15.4-1.22-.38-2.55-.37-3.76-.02-4.79,4.49-5.36,11.75-9.84,16.45-3.64.55-7.34.36-10.99.78l-.85.13c-2.49,1.01-4.73,2.56-7.24,3.51-2.82.09-5.53-1.03-8.34-1.01-2.06.32-3.48,2.51-3,4.53.81,5.17,4.34,9.38,5.62,14.41.55,1.8-.02,3.95-1.55,5.1-2.05,1.48-4.48,2.29-6.67,3.51-1.93.95-2.89,3-4.19,4.6-.43.38-1.28,1.14-1.71,1.52-2.34,2.02-4.06,4.63-5.67,7.25-4.06-2.22-8.29-4.1-12.51-5.97-2.81-1.37-5.86-2.7-7.76-5.28-1.89-2.68-1.14-6.76,1.64-8.54,4.3-2.94,9.74-3.28,14.32-5.64,2.43-1.21,3.74-4.14,3.29-6.77-.45-2.66-1.59-5.13-2.67-7.57-2.57-5.57-5.11-11.16-7.42-16.84-.38-2.22-1.14-5.16.89-6.79,1.99-.56,3.96-1.28,6.04-1.43,2.38,0,4.62.94,6.84,1.7,6.34,2.41,12.77,4.54,19.13,6.91,3.06.99,6.3,2.2,9.56,1.57,2.93-1.47,4.16-4.8,5.55-7.56,3.76-8.88,7.59-17.74,11.3-26.65.99-2.25,1.96-4.57,3.55-6.47Z"/>
        <path class="cls-2" d="M245.61,360.96c3.04-.46,5.47,2.63,5.19,5.5-.5,5.56-4.51,10.83-9.93,12.41-3.11.96-7.05-1.95-6.31-5.33.87-5.81,5.19-11.28,11.05-12.58Z"/>
        <path class="cls-2" d="M296.8,392.54c3.92-1.48,9.4.33,9.93,4.9-1.01,5.39-5.63,9.35-10.74,10.83-3.47,1.46-7.35-.42-9.6-3.12-.86-6.19,4.83-11.21,10.41-12.61Z"/>
        <path class="cls-2" d="M102.19,416.54c2.74-5.77,10.56-6.5,15.86-4.08,1.79,1.97,3.97,3.83,4.84,6.44.66,1.91-.8,3.72-2.44,4.51-2.73,1.34-5.83,1.5-8.79,1.81-4-1.52-9.04-3.83-9.47-8.68Z"/>
      </g>
      <g>
        <path class="cls-5" d="M179.51,98.35c6.13-1.19,12.29-3.28,18.6-2.85,5.56.82,11.01,2.26,16.46,3.66,55.19,13.8,110.39,27.6,165.59,41.4,3.51.89,7.14,1.47,10.46,2.98.2,1.59.21,3.21-.03,4.8-3.44,1.8-7.31,2.45-11.02,3.41-16.54,4.12-33.07,8.27-49.61,12.4-3.84,1.1-7.8,1.81-11.53,3.27-.84,1.48-.65,3.29-.94,4.93-.31,4.72-2.04,9.16-2.79,13.8,5.02.29,10.19-.71,15.09.8,2.78,1,5.56,2.4,7.56,4.63,1.29,1.99,1.77,4.41,1.99,6.74-2.78,7.76-7.06,15.26-13.78,20.25-4.06,3.11-9.25,3.97-14.13,4.92-6.28,1.23-12.8.54-18.91-1.2-3.66-1.01-6.9-3.34-10.73-3.7-2.43,2.32-4,5.42-6.62,7.55-3.43,2.58-8,2.65-12.02,1.71-9.83-2.16-19.35-5.56-28.54-9.62-3.16-1.36-6.35-2.79-9.76-3.33-.81,3.4-.67,7.21-2.8,10.16-2.71,3.78-7.69,5.25-12.17,4.82-7.32-.7-13.99-4.13-20.42-7.45-8.67-4.49-16.62-10.2-25.08-15.03-1.39,3.88-1.51,8.09-3.08,11.91-1.13,2.63-3.15,5.23-6.12,5.79-5.13,1.12-10.36-.4-15.13-2.23-8.47-3.32-16.94-6.71-24.89-11.14-2.69-1.25-5.94-3.25-8.87-1.55-6.99,16.44-8.92,35.04-5.53,52.6-.68,3.17-1.43,6.34-2.46,9.42-4.18,10.54-8.48,21.11-14.32,30.86-3.79-3.47-5.17-8.54-7.37-13.01-1.66-4.74-2.34-9.74-3.37-14.63-1.64-7.57-1.1-15.34-1.09-23.02,0-5.74,1.86-11.22,2.82-16.82-.93-2.13-3.01-3.46-4.58-5.08-3.52-3.08-5.88-7.23-7.55-11.54-1.39-3.53-.87-7.75,1.11-10.94,2.52-3.1,6.19-5.09,9.96-6.25,6.23-1.72,12.77-1.75,19.11-2.83.4-4.48.02-8.99.11-13.49-.08-4.47.36-8.97-.18-13.43-9.37-2.15-18.69-4.57-28.03-6.88-3.68-.91-7.3-2.14-11.09-2.48-.12,19.93.06,39.86-.08,59.79.02,2.44-.22,4.93.32,7.34,1.08,1.01,2.27,1.89,3.35,2.9.63,4.83.44,9.78.11,14.63-1.13,1.66-3.2,2.26-5.1,2.43-2.73.23-5.73.22-8.08-1.4-.27-5.48-.64-11.09.22-16.52.58-.28,1.72-.84,2.3-1.12.68-3.03.22-6.18.29-9.26-.02-16.33,0-32.67,0-49-.04-3.84.25-7.7-.16-11.52-3.48-1.46-7.25-2.02-10.88-2.98-10.4-2.64-20.82-5.2-31.22-7.81-2.66-.49-5.65-2.43-4.73-5.55,1.77-1.79,4.35-2.29,6.68-2.96,57.62-14.18,115.09-28.83,172.66-43.28Z"/>
        <path class="cls-5" d="M305.55,238.61c5.24-1.05,10.54-1.82,15.68-3.3,2.9,3.09,3.3,7.49,4.1,11.46,1.15,5.81,1.88,11.76,1.31,17.69-1.11,8.78-3.03,17.46-6.23,25.73-1.6,4.18-3.69,8.2-6.52,11.7-4.29-6.7-8.5-13.51-11.51-20.91-.12-.38-.35-1.14-.47-1.51-.05-.15-.14-.46-.18-.61l-.21-.67c-2.16-12.34-1.29-24.95.38-37.27.17-1.79,2.34-1.88,3.65-2.31Z"/>
        <path class="cls-5" d="M244.78,247.7c6.57-3.36,14.42-3.25,21.38-1.16,2.4.75,5.02,1.63,6.56,3.76,1.29,1.82,1.28,4.16,1.58,6.28-1.69,1.71-3.15,4.41-5.9,4.29-4.66,0-9.14-2.25-13.82-1.44-3.46.57-6.98,1.28-10.46.46-.17-.02-.49-.06-.65-.09-1.19-1.71-2.62-3.38-3.08-5.46-.08-2.85,1.91-5.41,4.39-6.64Z"/>
        <path class="cls-5" d="M143.45,257.15c6.25-.33,10.74,4.59,15.75,7.49,2.68,2.04,5.42,4,8.24,5.84,1.96,1.39,4.28,2.77,5.04,5.21.57,1.97.49,4.27-.66,6.04-1.91,2.54-5.74,3.78-8.55,1.95-5.49-3.03-10.37-7.04-15.74-10.26-2.92-2.06-6.62-3.75-8.02-7.26-1.31-3.6,1.66-6.64,3.94-9.01Z"/>
        <path class="cls-5" d="M124.87,277.71c2.63-.72,5.3.34,7.36,1.96,8.03,5.98,16.19,11.79,24.27,17.7,2.51,1.54,4.27,5.61,1.58,7.78-5.59,3.29-12.37,2.84-18.62,2.88-4.3-.1-8.59.73-12.88.34-3.51-.53-5.15-5.63-1.97-7.72,5.23-2.7,11.4-.5,16.86-2.27-4.89-5.54-11.97-8.59-17.18-13.8-1.86-1.83-1.65-5.41.58-6.87Z"/>
        <path class="cls-5" d="M238.4,284.37c4.49-5.62,12.57-7.07,19.21-4.99,5.08,1.79,9.19,6.17,10.59,11.38,1.29,4.78.72,9.95-1.03,14.55-1.59,4.04-5.25,6.7-8.79,8.94-3.94,1.18-8.21,1.32-12.23.49-5.12-1.25-8.9-5.53-10.9-10.24-1.28-6.73-1.42-14.53,3.15-20.13ZM248.85,282.84c-3.08.79-6.16,2.79-7.32,5.86-.86,5.59,4.91,9.52,9.93,9.58,3.78-.05,7.72-1.9,9.58-5.31.52-1.62.52-3.42,0-5.04-2.35-4.12-7.62-6.24-12.19-5.09Z"/>
        <path class="cls-5" d="M175.38,410.31l.85-.13c13.73-.23,27.48.07,41.22-.14,4.23-.13,8.54.3,12.45,2.05l.63.39c2.62,2.93,5.42,6.12,5.88,10.19.39,3.94-.37,7.87-.69,11.8-.79,10.16-3.03,20.17-3.32,30.38-.66,5.85-1.47,11.69-2.35,17.51-2.1,2.17-4.48,4.09-7,5.76-2.51,1.73-5.68,1.66-8.6,1.69-9.68-.13-19.37-.01-29.06-.02-4.29.12-8.45-2.03-11.03-5.43,9.36.36,17.84-6.85,20.25-15.67,2.33-9.34-2.63-20.01-11.47-23.96-4.89-2.36-10.46-1.94-15.72-2.12-.75-5.39-1.78-10.76-2.13-16.2-.26-3.6.57-7.36,2.84-10.22,1.97-2.44,4.6-4.25,7.25-5.88ZM183.82,425.54c-3.06,1.3-6.29,4.15-5.57,7.84.76,4.09,5.34,6.27,9.16,6.38,3.01-.48,5.92-2.64,7.07-5.49.36-2.62.08-6.05-2.58-7.38-2.38-1.4-5.38-2.46-8.08-1.35Z"/>
        <path class="cls-5" d="M109.6,432.12c.03-.16.07-.47.1-.63-.03.16-.07.47-.1.63Z"/>
      </g>
      <path class="cls-3" d="M325.56,218.57c6.72-4.99,11-12.49,13.78-20.25.13,1.41.19,2.82.18,4.23-.19.52-.58,1.55-.78,2.07-.11.79-.32,2.38-.43,3.17-.04.19-.14.56-.19.75-.17.48-.51,1.43-.68,1.9-.17.56-.52,1.69-.7,2.26-.16.55-.49,1.67-.65,2.23-.09.23-.26.68-.35.91l-.37.83c-.11.25-.34.73-.46.98l-.49.95-.52,1.04-.47.95c-.12.23-.36.7-.48.93l-.41.78c-.11.2-.34.61-.45.81-.42.68-1.25,2.04-1.67,2.73-.09.13-.28.4-.37.53-2.56,3.31-5.36,6.54-8.82,8.94-5.14,1.48-10.44,2.25-15.68,3.3-1.31.43-3.48.52-3.65,2.31-1.67,12.32-2.54,24.93-.38,37.27-4-6.97-6.15-14.75-8.59-22.34-1.45-4.58-1.95-9.43-3.67-13.93-5.29.35-10.48,1.85-15.82,1.66-9.57-.3-19.17-1.68-28.28-4.72-3.85-1.2-7.51-2.94-11.36-4.12-.37,4.03.6,8.61-1.99,12.09-3.38,4.65-9.63,6.14-15.1,5.55-11.19-.98-21.16-6.79-30.36-12.83-5.14-3.27-9.63-7.41-14.47-11.07.41,4.87,1.55,10.45-1.76,14.63-3.45,4.09-9.48,4.26-14.33,3.16-10.01-2.29-18.98-7.48-28.1-12-5.83-2.87-11.09-6.79-17.02-9.46-3.68,12.55-6.02,25.47-9.91,37.97-3.39-17.56-1.46-36.16,5.53-52.6,2.93-1.7,6.18.3,8.87,1.55,7.95,4.43,16.42,7.82,24.89,11.14,4.77,1.83,10,3.35,15.13,2.23,2.97-.56,4.99-3.16,6.12-5.79,1.57-3.82,1.69-8.03,3.08-11.91,8.46,4.83,16.41,10.54,25.08,15.03,6.43,3.32,13.1,6.75,20.42,7.45,4.48.43,9.46-1.04,12.17-4.82,2.13-2.95,1.99-6.76,2.8-10.16,3.41.54,6.6,1.97,9.76,3.33,9.19,4.06,18.71,7.46,28.54,9.62,4.02.94,8.59.87,12.02-1.71,2.62-2.13,4.19-5.23,6.62-7.55,3.83.36,7.07,2.69,10.73,3.7,6.11,1.74,12.63,2.43,18.91,1.2,4.88-.95,10.07-1.81,14.13-4.92Z"/>
      <path class="cls-3" d="M301.73,278.86c.04.15.13.46.18.61-.05-.15-.14-.46-.18-.61Z"/>
      <path class="cls-3" d="M248.85,282.84c4.57-1.15,9.84.97,12.19,5.09.52,1.62.52,3.42,0,5.04-1.86,3.41-5.8,5.26-9.58,5.31-5.02-.06-10.79-3.99-9.93-9.58,1.16-3.07,4.24-5.07,7.32-5.86Z"/>
      <path class="cls-5" d="M120.77,407.76c3.27-3.83,6.45-7.89,10.75-10.64,2.31,5.68,4.85,11.27,7.42,16.84,1.08,2.44,2.22,4.91,2.67,7.57.45,2.63-.86,5.56-3.29,6.77-4.58,2.36-10.02,2.7-14.32,5.64-2.78,1.78-3.53,5.86-1.64,8.54,1.9,2.58,4.95,3.91,7.76,5.28,4.22,1.87,8.45,3.75,12.51,5.97-1.06,3.13-2.07,6.36-2.02,9.71-.06,4.46,1.39,8.75,3.09,12.82-3.2.95-6.31-.66-9.31-1.56-5.69-1.76-10.69-5.19-15.05-9.15-3.82-3.51-6.28-8.17-8.26-12.88-2.93-6.43-2.1-13.74-1.48-20.55.03-.16.07-.47.1-.63.38-2.16.77-4.39,1.96-6.27,2.96-.31,6.06-.47,8.79-1.81,1.64-.79,3.1-2.6,2.44-4.51-.87-2.61-3.05-4.47-4.84-6.44.29-1.85,1.63-3.27,2.72-4.7Z"/>
      <path class="cls-5" d="M257.45,417.42c2.81-6.59,5.78-13.12,8.84-19.59,5.47,4.12,10.15,9.3,13.64,15.19,4.81,7.63,8.45,16.28,8.87,25.39.66,12.77-6.01,25.87-17.2,32.25-7.35,4.37-15.77,6.85-24.23,7.88,4.91-3.43,7.9-9.18,8.33-15.1.16-3.12-.61-6.17-1.24-9.2,5.19-2.31,10.27-4.9,15.37-7.41,2.27-1.27,4.97-2.48,6.05-5.02.99-2.66.67-6.29-1.9-7.95-4.96-3.17-11.37-3.19-16.1-6.8-2.86-2.45-1.58-6.65-.43-9.64Z"/>
      <path class="cls-3" d="M183.82,425.54c2.7-1.11,5.7-.05,8.08,1.35,2.66,1.33,2.94,4.76,2.58,7.38-1.15,2.85-4.06,5.01-7.07,5.49-3.82-.11-8.4-2.29-9.16-6.38-.72-3.69,2.51-6.54,5.57-7.84Z"/>
      <g>
        <path class="cls-1" d="M110.67,224.81c5.93,2.67,11.19,6.59,17.02,9.46,9.12,4.52,18.09,9.71,28.1,12,4.85,1.1,10.88.93,14.33-3.16,3.31-4.18,2.17-9.76,1.76-14.63,4.84,3.66,9.33,7.8,14.47,11.07,9.2,6.04,19.17,11.85,30.36,12.83,5.47.59,11.72-.9,15.1-5.55,2.59-3.48,1.62-8.06,1.99-12.09,3.85,1.18,7.51,2.92,11.36,4.12,9.11,3.04,18.71,4.42,28.28,4.72,5.34.19,10.53-1.31,15.82-1.66,1.72,4.5,2.22,9.35,3.67,13.93,2.44,7.59,4.59,15.37,8.59,22.34l.21.67c.04.15.13.46.18.61.12.37.35,1.13.47,1.51-4.84-4.31-9.58-8.84-13.07-14.35-2.21-3.22-3.77-6.9-6.42-9.8-2.61-1.45-5.78-.5-8.59-.25-.3-2.12-.29-4.46-1.58-6.28-1.54-2.13-4.16-3.01-6.56-3.76-6.96-2.09-14.81-2.2-21.38,1.16-2.48,1.23-4.47,3.79-4.39,6.64.46,2.08,1.89,3.75,3.08,5.46-4.03-.58-6.9,2.71-10.25,4.28-5.46,2.57-11.79,3.43-17.71,2.17-9.17-1.9-17.7-6.2-25.17-11.78-2.86-2.15-5.57-4.57-8.79-6.2-1.85,4.55-2.66,10.22-7.31,12.91-4.61,2.45-10.04,2.36-15.04,3.46-5.01-2.9-9.5-7.82-15.75-7.49-2.77-.14-5.71-.15-8.13-1.68-5.31-3.2-10.41-6.77-15.16-10.75-1.32-.92-2.57-2.43-4.34-2.11-1.52,3.28-2.52,6.8-4.37,9.92-4,6.81-9.35,12.74-13.15,19.67,1.03-3.08,1.78-6.25,2.46-9.42,3.89-12.5,6.23-25.42,9.91-37.97Z"/>
        <path class="cls-1" d="M243.47,259.8c.16.03.48.07.65.09-.17-.02-.49-.06-.65-.09Z"/>
        <path class="cls-1" d="M69.89,309.84c4.42-2.65,11.07-2.8,14.4,1.66.07.69.19,2.07.25,2.77-3.33-.15-6.8-.75-10.04.32-3.06,1.27-5.64,3.81-6.88,6.89-1.38,4.08-.31,8.55-1.61,12.65-2.91,2.06-5.45-1.12-5.75-3.88-1.03-7.85,2.61-16.43,9.63-20.41Z"/>
        <path class="cls-1" d="M313.56,311.4c2.01-1.59,4.17-3.41,6.89-3.4,6.37-.3,12.28,3.99,14.96,9.61,2.63,4.96,3.57,11.41.44,16.36-1.08,1.26-2.77.69-4.07.23-.88-3.69-.48-7.53-1.11-11.25-.76-3.49-3.31-6.69-6.74-7.82-3.41-1.15-7.03-1.45-10.57-1.98.05-.44.15-1.31.2-1.75Z"/>
        <path class="cls-1" d="M196.92,319.05c3.41-.72,7.03.2,9.91,2.09,1.88,1.27,3.04,4.15,1.42,6.08-1.56,1.65-3.82,2.36-5.93,3.04-3.95,1.36-8.2-.09-11.64-2.11-1.91-1.02-2.44-3.84-1.02-5.46,1.83-2.11,4.61-3.07,7.26-3.64Z"/>
        <path class="cls-1" d="M160.84,325.9c.89-1.36,2.6-1.23,4-1.01,1.6,2.9,2.25,6.25,4.13,9.01,4.27,5.86,10.92,9.68,17.92,11.29,5.33,1.08,10.82,2.22,16.26,1.23,9.13-.99,19.07-3.77,24.8-11.5,2.55-2.87,3.59-6.62,5.12-10.05,1.4-.2,3.08-.31,3.97,1.03.24,5.8-3.85,10.58-7.62,14.53-4.44,5.03-10.71,8.07-17.14,9.69-5.84,1.46-11.91.95-17.86,1.05-13.76.36-27.39-8.07-32.83-20.78-.61-1.41-.98-2.96-.75-4.49Z"/>
        <path class="cls-1" d="M142.63,453.73c1.61-2.62,3.33-5.23,5.67-7.25-3.45,8.62,0,19.35,7.81,24.35,5.36,3.64,12.06,4.1,18.33,4.07,4.33-.09,8.74-.13,12.94-1.31,2.88-.81,5.16-2.84,7.23-4.9-2.41,8.82-10.89,16.03-20.25,15.67-7.23-.3-14.86.75-21.67-2.3-3.14-1.69-5.97-3.9-8.99-5.8-1.7-4.07-3.15-8.36-3.09-12.82-.05-3.35.96-6.58,2.02-9.71Z"/>
      </g>
      <g>
        <path class="cls-9" d="M115.82,242.61c1.77-.32,3.02,1.19,4.34,2.11,4.75,3.98,9.85,7.55,15.16,10.75,2.42,1.53,5.36,1.54,8.13,1.68-2.28,2.37-5.25,5.41-3.94,9.01,1.4,3.51,5.1,5.2,8.02,7.26,5.37,3.22,10.25,7.23,15.74,10.26,2.81,1.83,6.64.59,8.55-1.95,1.15-1.77,1.23-4.07.66-6.04-.76-2.44-3.08-3.82-5.04-5.21-2.82-1.84-5.56-3.8-8.24-5.84,5-1.1,10.43-1.01,15.04-3.46,4.65-2.69,5.46-8.36,7.31-12.91,3.22,1.63,5.93,4.05,8.79,6.2,7.47,5.58,16,9.88,25.17,11.78,5.92,1.26,12.25.4,17.71-2.17,3.35-1.57,6.22-4.86,10.25-4.28.16.03.48.07.65.09,3.48.82,7,.11,10.46-.46,4.68-.81,9.16,1.44,13.82,1.44,2.75.12,4.21-2.58,5.9-4.29,2.81-.25,5.98-1.2,8.59.25,2.65,2.9,4.21,6.58,6.42,9.8,3.49,5.51,8.23,10.04,13.07,14.35,3.01,7.4,7.22,14.21,11.51,20.91-.05,3.17-.1,6.34-.33,9.51-.05.44-.15,1.31-.2,1.75-1.02,6.24-.23,12.6-1.08,18.85-.94,7.53-2.68,14.95-4.9,22.2-.98,3.31-2.66,6.36-4.67,9.15-6.4,9.02-14.94,16.38-24.63,21.66-4.04,2.15-8.06,4.67-12.63,5.44-1.94-.65-3.86-1.59-5.94-1.65-2.4.15-4.67,1.04-6.92,1.82-6.57,2.49-13.27,4.62-19.82,7.18-2.97.99-6.39,2.35-9.41.79-2.86-1.62-3.99-4.96-5.32-7.77-3.54-8.72-7.43-17.3-10.97-26.03-1.1-2.43-2.1-5.03-4.04-6.92-2.44-1.92-6.59-1.99-8.65.53-1.59,1.9-2.56,4.22-3.55,6.47-3.71,8.91-7.54,17.77-11.3,26.65-1.39,2.76-2.62,6.09-5.55,7.56-3.26.63-6.5-.58-9.56-1.57-6.36-2.37-12.79-4.5-19.13-6.91-2.22-.76-4.46-1.7-6.84-1.7-2.08.15-4.05.87-6.04,1.43-2.46.2-4.72-1.07-6.87-2.07-6.4-3.38-12.64-7.12-18.37-11.54-4.81-3.64-8.66-8.35-12.12-13.24-1.9-2.9-3.5-6-4.47-9.33-2.07-7.02-3.65-14.18-4.76-21.41-.96-6.12-.41-12.35-1.28-18.47-.06-.7-.18-2.08-.25-2.77-.19-2.81-.24-5.63-.31-8.44,5.84-9.75,10.14-20.32,14.32-30.86,3.8-6.93,9.15-12.86,13.15-19.67,1.85-3.12,2.85-6.64,4.37-9.92ZM246.04,267.21c-8.27,3.56-14.02,12.26-14.29,21.23-.36,5.52-.2,11.57,3.5,16.06,2,4.71,5.78,8.99,10.9,10.24,4.02.83,8.29.69,12.23-.49,2.3-.11,4.77.05,6.86-1.11,7.13-3.78,11.63-11.7,11.9-19.68.26-5.23.08-10.73-2.34-15.5-2.37-5.32-7.37-8.95-12.61-11.13-5.18-1.82-11.03-1.45-16.15.38ZM124.87,277.71c-2.23,1.46-2.44,5.04-.58,6.87,5.21,5.21,12.29,8.26,17.18,13.8-5.46,1.77-11.63-.43-16.86,2.27-3.18,2.09-1.54,7.19,1.97,7.72,4.29.39,8.58-.44,12.88-.34,6.25-.04,13.03.41,18.62-2.88,2.69-2.17.93-6.24-1.58-7.78-8.08-5.91-16.24-11.72-24.27-17.7-2.06-1.62-4.73-2.68-7.36-1.96ZM111.81,316.8c-3.84.84-7.81,3.11-9.06,7.06-.93,2.59.15,5.43,1.93,7.37,7.89,8.61,21.8,10.95,32.14,5.63,3.6-1.52,5.25-6.02,3.83-9.58-1.29-3.14-3.98-5.49-6.87-7.14-6.64-3.61-14.56-4.86-21.97-3.34ZM272.83,316.91c-5.91,1.41-12.36,3.99-15.16,9.81-1.87,3.04-.82,7.42,2.15,9.35,3.98,2.69,8.88,3.82,13.64,3.51,7.25-.35,14.8-2.8,19.74-8.35,2.03-2.17,2.96-5.49,1.84-8.32-1.82-3.29-5.39-5.28-8.96-6.09-4.36-.9-8.91-.83-13.25.09ZM196.92,319.05c-2.65.57-5.43,1.53-7.26,3.64-1.42,1.62-.89,4.44,1.02,5.46,3.44,2.02,7.69,3.47,11.64,2.11,2.11-.68,4.37-1.39,5.93-3.04,1.62-1.93.46-4.81-1.42-6.08-2.88-1.89-6.5-2.81-9.91-2.09ZM160.84,325.9c-.23,1.53.14,3.08.75,4.49,5.44,12.71,19.07,21.14,32.83,20.78,5.95-.1,12.02.41,17.86-1.05,6.43-1.62,12.7-4.66,17.14-9.69,3.77-3.95,7.86-8.73,7.62-14.53-.89-1.34-2.57-1.23-3.97-1.03-1.53,3.43-2.57,7.18-5.12,10.05-5.73,7.73-15.67,10.51-24.8,11.5-5.44.99-10.93-.15-16.26-1.23-7-1.61-13.65-5.43-17.92-11.29-1.88-2.76-2.53-6.11-4.13-9.01-1.4-.22-3.11-.35-4,1.01ZM151.75,351.53c-1.83.99-3.53,2.71-3.62,4.91-.6,5.03,1.64,9.84,4.22,14.01,2.18,3.5,6.66,6.16,10.82,5.02,2.88-1.9,5.08-5.38,4.5-8.93-.62-4.82-2.56-9.83-6.63-12.78-2.57-1.98-6.07-3.62-9.29-2.23ZM245.61,360.96c-5.86,1.3-10.18,6.77-11.05,12.58-.74,3.38,3.2,6.29,6.31,5.33,5.42-1.58,9.43-6.85,9.93-12.41.28-2.87-2.15-5.96-5.19-5.5Z"/>
        <path class="cls-9" d="M150.01,444.96c5.68-1.51,11.5-2.58,17.41-2.35,5.26.18,10.83-.24,15.72,2.12,8.84,3.95,13.8,14.62,11.47,23.96-2.07,2.06-4.35,4.09-7.23,4.9-4.2,1.18-8.61,1.22-12.94,1.31-6.27.03-12.97-.43-18.33-4.07-7.81-5-11.26-15.73-7.81-24.35.43-.38,1.28-1.14,1.71-1.52Z"/>
        <path class="cls-9" d="M233.23,463.41c7.31-2.5,13.92-6.64,21.23-9.17.63,3.03,1.4,6.08,1.24,9.2-.43,5.92-3.42,11.67-8.33,15.1-5.33,2.66-11.24,5.04-17.32,3.82.88-5.82,1.69-11.66,2.35-17.51.21-.36.62-1.08.83-1.44Z"/>
      </g>
      <path class="cls-8" d="M246.04,267.21c5.12-1.83,10.97-2.2,16.15-.38,5.24,2.18,10.24,5.81,12.61,11.13,2.42,4.77,2.6,10.27,2.34,15.5-.27,7.98-4.77,15.9-11.9,19.68-2.09,1.16-4.56,1-6.86,1.11,3.54-2.24,7.2-4.9,8.79-8.94,1.75-4.6,2.32-9.77,1.03-14.55-1.4-5.21-5.51-9.59-10.59-11.38-6.64-2.08-14.72-.63-19.21,4.99-4.57,5.6-4.43,13.4-3.15,20.13-3.7-4.49-3.86-10.54-3.5-16.06.27-8.97,6.02-17.67,14.29-21.23Z"/>
      <g>
        <path class="cls-7" d="M111.81,316.8c7.41-1.52,15.33-.27,21.97,3.34,2.89,1.65,5.58,4,6.87,7.14,1.42,3.56-.23,8.06-3.83,9.58-10.34,5.32-24.25,2.98-32.14-5.63-1.78-1.94-2.86-4.78-1.93-7.37,1.25-3.95,5.22-6.22,9.06-7.06Z"/>
        <path class="cls-7" d="M272.83,316.91c4.34-.92,8.89-.99,13.25-.09,3.57.81,7.14,2.8,8.96,6.09,1.12,2.83.19,6.15-1.84,8.32-4.94,5.55-12.49,8-19.74,8.35-4.76.31-9.66-.82-13.64-3.51-2.97-1.93-4.02-6.31-2.15-9.35,2.8-5.82,9.25-8.4,15.16-9.81Z"/>
      </g>
      <g>
        <path class="cls-4" d="M151.75,351.53c3.22-1.39,6.72.25,9.29,2.23,4.07,2.95,6.01,7.96,6.63,12.78.58,3.55-1.62,7.03-4.5,8.93-4.16,1.14-8.64-1.52-10.82-5.02-2.58-4.17-4.82-8.98-4.22-14.01.09-2.2,1.79-3.92,3.62-4.91Z"/>
        <path class="cls-4" d="M197.06,392.95c1.21-.35,2.54-.36,3.76.02,4.5,4.1,5.2,10.65,8.74,15.4,6.18,3.67,14.58-1.26,20.34,3.72-3.91-1.75-8.22-2.18-12.45-2.05-13.74.21-27.49-.09-41.22.14,3.65-.42,7.35-.23,10.99-.78,4.48-4.7,5.05-11.96,9.84-16.45Z"/>
        <path class="cls-4" d="M168.14,413.82c2.51-.95,4.75-2.5,7.24-3.51-2.65,1.63-5.28,3.44-7.25,5.88-2.27,2.86-3.1,6.62-2.84,10.22.35,5.44,1.38,10.81,2.13,16.2-5.91-.23-11.73.84-17.41,2.35,1.3-1.6,2.26-3.65,4.19-4.6,2.19-1.22,4.62-2.03,6.67-3.51,1.53-1.15,2.1-3.3,1.55-5.1-1.28-5.03-4.81-9.24-5.62-14.41-.48-2.02.94-4.21,3-4.53,2.81-.02,5.52,1.1,8.34,1.01Z"/>
        <path class="cls-4" d="M230.53,412.48c2.75.47,5.56.3,8.32.67,1.69.85,2.4,3.05,1.8,4.81-1.57,6.07-5.12,11.85-4.43,18.33,2.89,2.61,7.02,3.06,10.06,5.41.85,1.19,1,2.77.68,4.18-2.15,2.39-5.29,3.46-8.07,4.89-1.95,1.01-4.34,1.97-5.01,4.29-.8,2.7-.53,5.56-.65,8.35-.21.36-.62,1.08-.83,1.44.29-10.21,2.53-20.22,3.32-30.38.32-3.93,1.08-7.86.69-11.8-.46-4.07-3.26-7.26-5.88-10.19Z"/>
      </g>
    </g>
  </g>
</svg>